<svg xmlns="http://www.w3.org/2000/svg" viewBox="0 0 64 64" role="img" aria-label="Fire">
  <defs>
    <radialGradient id="g" cx="30%" cy="25%" r="80%">
      <stop offset="0%" stop-color="#ff8a7a"/>
      <stop offset="55%" stop-color="#e24a3b"/>
      <stop offset="100%" stop-color="#b52c22"/>
    </radialGradient>
  </defs>
  <circle cx="32" cy="32" r="28" fill="url(#g)"/>
  <circle cx="32" cy="32" r="28" fill="none" stroke="#ffffff" opacity=".25"/>
  <path fill="#fff" opacity=".92" d="M33 14c2 6-2 8-2 12 0 2 1 4 3 5 0-5 6-7 6-13 6 6 8 12 8 17 0 11-8 17-16 17S16 46 16 35c0-7 4-13 10-18-1 6 1 8 4 9 1-4 3-6 3-12z"/>
</svg>